<svg width="230px" height="410px" viewBox="0 0 230 410" version="1.1" xmlns="http://www.w3.org/2000/svg" xmlns:xlink="http://www.w3.org/1999/xlink">
  <desc>Created with Sketch.</desc>
  <defs></defs>
  <g id="Page-1" stroke="none" stroke-width="1" fill="none" fill-rule="evenodd" stroke-linecap="round" stroke-linejoin="round">
      <g id="Desktop-HD-Copy" transform="translate(-890.000000, -146.000000)" stroke="#FFFFFF" stroke-width="4">
          <g id="Group" transform="translate(892.000000, 148.000000)">
              <ellipse id="Oval-6" cx="188" cy="132.5" rx="4" ry="6.5"></ellipse>
              <ellipse id="Oval-7" cx="184" cy="260.5" rx="5" ry="6.5"></ellipse>
              <polygon id="Path-4" points="40.674522 16.9019345 33 78 110 55.5072917 98.7702256 0"></polygon>
              <polyline id="Path-5" points="99 0 141.819198 6.41827695 164 59 109.907748 55.2341964"></polyline>
              <path d="M164,59 L145.833692,85.7686686 C146.720347,80.3536279 142.087312,77.6461076 131.934589,77.6461076 C121.781866,77.6461076 114.953375,77.6461076 111.449117,77.6461076 C84.6246908,81.9187203 66.1416518,85.8025398 56,89.297566 C56,95.7422918 56.761021,99.9764364 58.283063,102 L111.449117,90.5597529 L111.449117,77.6461076" id="Path-6"></path>
              <path d="M112,91 L172.818064,99.6728622 L174.587443,112.025973 L154.44256,109.559968 C143.498888,112.8701 138.57198,119.814065 139.661837,130.391864 C140.751693,140.969664 144.384791,148.839042 150.561129,154 L179.964699,152.004398 C173.51141,144.681417 170.706982,138.381008 171.551415,133.103171 C172.395847,127.825334 176.212042,121.45398 183,113.989109 L174.587443,112.025973" id="Path-7"></path>
              <path d="M181.927833,114 C190.20795,114.9684 196.048452,118.22294 199.449336,123.76362 C202.850221,129.3043 202.850221,135.401392 199.449336,142.054895 C197.390314,146.497577 190.573868,149.812612 179,152" id="Path-8"></path>
              <path d="M159,153 L186.262551,185.332169 C187.572616,181.175642 195.213936,179.097378 209.18651,179.097378 C205.757806,182.539662 204.35755,186.164642 204.985743,189.972319 C205.613936,193.779996 207.618688,197.122053 211,199.998488 C197.238758,202.667171 188.992941,202.667171 186.262551,199.998488 C183.532162,197.329806 183.532162,192.441033 186.262551,185.332169" id="Path-9"></path>
              <path d="M194.005349,147 L208.44997,179.337859 C216.344467,176.004679 221.560223,176.77648 224.097238,181.653262 C226.634254,186.530045 226.634254,191.073836 224.097238,195.284637 C222.442642,197.994444 217.781541,199.713971 210.113936,200.443218 C202.44633,201.172466 191.912419,216.024726 178.512204,245 L159,238.909093 L185.280614,200.443218" id="Path-10"></path>
              <path d="M223,197 L200.600087,255.481082 C200.296765,249.78982 197.206797,246.619105 191.330183,245.968937 C182.515261,244.993685 183.991056,246.552496 177.509006,244.882911 C168.761462,253.699033 165.474915,260.657567 167.649363,265.758513 C169.823812,270.859459 173.56824,274.485098 178.882647,276.635431 C187.170861,278.295845 193.18851,274.284546 196.935595,264.601533 C200.682679,254.91852 201.904176,251.738034 200.600087,255.060074" id="Path-11"></path>
              <path d="M211.731734,227 L217,278.40118 L182.098821,283 L145.837133,271.962687 C139.474328,260.197397 143.813865,249.175095 158.855746,238.895778" id="Path-12"></path>
              <path d="M181,282.227045 L132.887023,277.352153 L138.01066,353 L93.0517007,346.672385 L90,280.525216 C115.346196,278.409841 129.641871,277.352153 132.887023,277.352153 L110.971854,90" id="Path-13"></path>
              <path d="M32.5071507,78 L57.8140814,101.712739 L18,110.5411 L18,286.756847 L32.5071507,286.756847 L29.4455446,352 L65,352 L57.8140814,283.011117 C42.5702237,285.508271 34.1345801,286.756847 32.5071507,286.756847" id="Path-14"></path>
              <path d="M58,284 L91,281" id="Path-15"></path>
              <path d="M65,353 L93,333" id="Path-16"></path>
              <path d="M64.6911585,352.674586 C49.2752822,365.374817 40.7830174,373.458848 39.214364,376.926678 C36.8613841,382.128423 35.5185188,378.366298 39.7241626,402 L68.5845349,397.208201 C65.7608405,375.056031 74.2326621,358.319964 94,347" id="Path-17"></path>
              <polyline id="Path-18" points="81 357.677103 132.994809 368 139 354"></polyline>
              <path d="M133,368 C141.737384,357.607262 159.070718,348.960088 185,342.058477 L181.852426,283" id="Path-19"></path>
              <path d="M184.276913,342 L188,381.928207 L125.427665,405 C120.656606,394.708455 122.917923,382.334184 132.211616,367.877187" id="Path-20"></path>
              <path d="M123,396 L188,373" id="Path-21"></path>
              <path d="M168,362.983804 C168,369.21981 172.552265,367.878687 175.501485,367.878687 C178.450704,367.878687 182,362.808641 182,359.470879 C182,356.133116 178.184241,354 175,354 C171.815759,354 168,356.747797 168,362.983804 Z" id="Path-22"></path>
              <path d="M29.1008455,353 C7.35526889,353.825449 -0.802526553,371.158783 4.62745912,405 L40,402.429767" id="Path-23"></path>
              <path d="M73,368 L128,377" id="Path-24"></path>
              <path d="M69,380 L125,386" id="Path-25"></path>
              <path d="M68,388 L124,395" id="Path-26"></path>
              <path d="M68,397 C101.012271,404.372195 120.012271,407.215285 125,405.529271" id="Path-27"></path>
              <path d="M10,361 L49,365" id="Path-28"></path>
              <path d="M6,368 C11.2853268,370.275107 23.2853268,371.941774 42,373" id="Path-29"></path>
              <path d="M3,382.5 L37,382.5" id="Path-30"></path>
              <polyline id="Path-31" points="3 394 37.8930667 394 67 387"></polyline>
              <polygon id="Path-32" points="29 121.501114 34.8661112 164 107 145.127186 102.692677 105"></polygon>
              <polyline id="Path-33" points="29 121.253042 37.7920792 126 103 111"></polyline>
              <path d="M38,126 C40.6666667,132.982898 42,144.982898 42,162" id="Path-34"></path>
              <polyline id="Path-35" points="41 142 69.1058029 136.574919 74.6950188 142 76.2161896 128 83.146209 133.32611 105 128"></polyline>
              <path d="M32,182.259609 C79.9420087,169.377159 105.559299,163.706236 108.85187,165.24684 L114,181.96317 C69.0737338,196.855679 41.7404005,203.010383 32,200.42728 L32,183" id="Path-36"></path>
              <path d="M42.5,179 L42.5,200" id="Path-37"></path>
              <path d="M56.6887787,176 L58.3112213,198" id="Path-38"></path>
              <path d="M74,172 L76,194" id="Path-39"></path>
              <path d="M91,168 L93,189" id="Path-40"></path>
              <path d="M103.678908,166 L105.321092,185" id="Path-41"></path>
              <circle id="Oval" cx="32" cy="221" r="5"></circle>
              <circle id="Oval-2" cx="110" cy="207" r="6"></circle>
              <ellipse id="Oval-3" cx="33" cy="274" rx="6" ry="5"></ellipse>
              <ellipse id="Oval-4" cx="116" cy="263" rx="5" ry="4"></ellipse>
              <path d="M112,213 L116,259" id="Path-42"></path>
              <path d="M37,219.132514 L103.855503,207.154223" id="Path-43"></path>
              <path d="M31.2250932,227.021787 L32.9782359,268.944106" id="Path-44"></path>
              <path d="M18,226 C6,231.238226 4.85289533e-16,238.951671 0,249.140333 C0,259.328995 6,266.282217 18,270" id="Path-45"></path>
              <path d="M125.534188,122 C125.304972,110.162373 128.460243,103.495706 135,102 L122,102 L125.534188,122 Z" id="Path-46"></path>
              <ellipse id="Oval-5" cx="129.5" cy="146" rx="3.5" ry="10"></ellipse>
              <path d="M127.189572,36 L145,29.0034957 L127.189572,19 C121.603476,26.1241617 121.603476,31.7908283 127.189572,36 Z" id="Path-47"></path>
              <path d="M132,22 C128,26.8007497 128,30.8007497 132,34" id="Path-48"></path>
              <polygon id="Path-49" points="107 8 112 8 112 11 107 11"></polygon>
              <polygon id="Path-49" points="109 18 114 18 114 21 109 21"></polygon>
              <polygon id="Path-49" points="111 28 116 28 116 31 111 31"></polygon>
              <polygon id="Path-49" points="114 40 119 40 119 43 114 43"></polygon>
              <path d="M39,273 L111,263" id="Path-50"></path>
              <path d="M92.0022197,38.1140176 L97,49.4480735 L45.0911878,64 C43.1637798,54.2456408 43.7897143,48.4999539 46.9689911,46.7629391 C52.9454719,43.4976571 86.5603499,37.0664219 92.0022197,38.1140176 Z" id="Path-51"></path>
              <path d="M57.4964831,44 L58.5035169,60" id="Path-52"></path>
              <path d="M73,41 L75,56" id="Path-53"></path>
              <path d="M85,39 C88.5555556,45.5860705 89.7407407,49.9194038 88.5555556,52" id="Path-54"></path>
              <path d="M90,18.1730332 C90,21.842048 87.2886574,25 83.6008102,25 C79.912963,25 77,23.9229291 77,19.9591111 C77,15.9952931 79.8441262,14 83.6008102,14 C87.3574942,14 90,14.5040184 90,18.1730332 Z" id="Path-55"></path>
              <path d="M47,29.4868933 C47,32.337659 48.1418743,33 50.3624828,33 C52.5830913,33 54,31.7732503 54,28.4300545 C54,25.0868587 52.6201906,25 50.5,25 C48.3798094,25 47,26.6361277 47,29.4868933 Z" id="Path-56"></path>
              <path d="M146,85 L141,95" id="Path-57"></path>
          </g>
      </g>
  </g>
</svg>
