<?xml version="1.0" encoding="UTF-8" standalone="no"?>
<svg
   xmlns:dc="http://purl.org/dc/elements/1.1/"
   xmlns:cc="http://creativecommons.org/ns#"
   xmlns:rdf="http://www.w3.org/1999/02/22-rdf-syntax-ns#"
   xmlns:svg="http://www.w3.org/2000/svg"
   xmlns="http://www.w3.org/2000/svg"
   xmlns:sodipodi="http://sodipodi.sourceforge.net/DTD/sodipodi-0.dtd"
   xmlns:inkscape="http://www.inkscape.org/namespaces/inkscape"
   version="1.0"
   width="578pt"
   height="228.99269pt"
   viewBox="0 0 578 228.99269"
   preserveAspectRatio="xMidYMid meet"
   id="svg18"
   sodipodi:docname="robit-final-white.svg"
   inkscape:version="0.92.4 (5da689c313, 2019-01-14)"
   enable-background="new">
  <defs
     id="defs22">
    <filter
       inkscape:collect="always"
       style="color-interpolation-filters:sRGB"
       id="filter4600">
      <feBlend
         inkscape:collect="always"
         mode="multiply"
         in2="BackgroundImage"
         id="feBlend4602" />
    </filter>
  </defs>
  <sodipodi:namedview
     pagecolor="#ffffff"
     bordercolor="#666666"
     borderopacity="1"
     objecttolerance="10"
     gridtolerance="10"
     guidetolerance="10"
     inkscape:pageopacity="0"
     inkscape:pageshadow="2"
     inkscape:window-width="1920"
     inkscape:window-height="1043"
     id="namedview20"
     showgrid="false"
     inkscape:zoom="0.43283582"
     inkscape:cx="259.45034"
     inkscape:cy="146.06667"
     inkscape:window-x="1920"
     inkscape:window-y="0"
     inkscape:window-maximized="1"
     inkscape:current-layer="g16" />
  <metadata
     id="metadata2">
Created by potrace 1.15, written by Peter Selinger 2001-2017
<rdf:RDF>
  <cc:Work
     rdf:about="">
    <dc:format>image/svg+xml</dc:format>
    <dc:type
       rdf:resource="http://purl.org/dc/dcmitype/StillImage" />
    <dc:title></dc:title>
  </cc:Work>
</rdf:RDF>
</metadata>
  <g
     transform="matrix(0.1,0,0,-0.1,-14,247.9427)"
     id="g16"
     style="fill:#000036;fill-opacity:1;stroke:none;filter:url(#filter4600)"
     inkscape:export-filename="/home/jonathan/Desktop/logos/robit-logo-white-very-large.png"
     inkscape:export-xdpi="199.30795"
     inkscape:export-ydpi="199.30795">
    <path
       d="m 4595,2461 c -84,-38 -127,-109 -127,-206 0,-176 175,-284 332,-205 78,40 120,113 120,207 -1,97 -49,173 -132,207 -51,22 -143,20 -193,-3 z"
       id="path4"
       inkscape:connector-curvature="0"
       style="fill:#ffffff;fill-opacity:1" />
    <path
       d="m 3110,2450 c -44,-11 -57,-30 -65,-94 -3,-28 -5,-507 -3,-1064 l 3,-1014 28,-24 c 26,-22 36,-24 143,-24 109,0 116,1 139,25 14,13 25,29 25,35 0,6 18,-2 40,-16 90,-60 284,-83 415,-49 206,54 330,225 392,540 24,124 24,450 0,585 -45,248 -135,398 -287,479 -142,76 -367,83 -503,15 -27,-13 -51,-24 -53,-24 -2,0 -4,132 -4,293 -1,325 0,322 -67,338 -46,10 -155,10 -203,-1 z m 630,-892 c 87,-45 138,-155 160,-348 19,-168 5,-394 -32,-504 -44,-132 -112,-189 -228,-189 -120,0 -179,57 -225,218 -25,88 -33,439 -12,555 26,148 66,232 131,271 46,28 148,26 206,-3 z"
       id="path6"
       inkscape:connector-curvature="0"
       style="fill:#ffffff;fill-opacity:1" />
    <path
       d="m 5322,2253 c -47,-10 -57,-44 -60,-220 l -4,-163 h -65 c -77,0 -97,-9 -112,-51 -14,-40 -14,-132 -1,-180 13,-45 42,-59 120,-59 h 60 v -447 c 0,-247 5,-489 10,-540 18,-170 65,-248 182,-306 94,-46 153,-57 294,-57 109,0 116,1 139,25 23,22 25,31 25,128 0,143 -5,150 -133,158 -66,4 -104,12 -122,23 -54,35 -55,46 -55,551 v 465 h 135 c 131,0 137,1 160,25 23,22 25,32 25,118 0,80 -3,98 -21,121 -20,26 -21,26 -159,26 h -138 l -3,170 c -5,217 -3,214 -152,216 -56,1 -112,0 -125,-3 z"
       id="path8"
       inkscape:connector-curvature="0"
       style="fill:#ffffff;fill-opacity:1" />
    <path
       d="m 1770,1885 c -7,-8 -19,-61 -28,-119 l -15,-103 -50,-22 -50,-21 -85,65 c -46,36 -90,65 -97,65 -36,0 -225,-187 -225,-222 0,-10 29,-54 64,-98 l 63,-81 -21,-53 -21,-54 -104,-16 c -57,-9 -110,-21 -118,-27 -18,-16 -19,-292 0,-307 6,-5 56,-16 109,-23 54,-7 101,-15 105,-18 4,-3 18,-30 30,-58 l 21,-53 -59,-76 c -58,-76 -63,-85 -59,-114 3,-23 192,-210 213,-210 11,0 57,29 103,65 l 83,64 48,-21 c 26,-11 49,-21 50,-22 1,-1 9,-49 18,-106 10,-58 22,-111 27,-117 15,-18 291,-18 306,0 5,6 17,59 27,117 9,57 17,105 18,106 1,1 24,11 50,22 l 48,21 82,-64 c 45,-36 89,-65 99,-65 34,0 228,190 228,224 0,7 -29,50 -65,96 -36,45 -64,85 -63,89 2,3 11,27 21,52 l 19,46 105,17 c 59,9 112,21 120,27 19,17 19,282 -1,302 -8,7 -54,19 -102,26 -122,17 -118,15 -143,76 l -23,54 61,78 c 34,44 61,89 61,101 0,28 -172,210 -206,218 -17,4 -43,-10 -109,-59 l -86,-65 -47,20 c -26,12 -50,25 -53,30 -3,5 -11,52 -18,106 -7,53 -18,103 -23,110 -16,19 -291,17 -308,-3 z m 277,-584 c 206,-105 214,-396 14,-505 -191,-103 -421,33 -421,249 0,122 75,226 197,271 53,20 157,13 210,-15 z"
       id="path10"
       inkscape:connector-curvature="0"
       style="fill:#ffffff;fill-opacity:1" />
    <path
       d="m 680,1877 c -63,-15 -142,-52 -167,-79 -23,-26 -30,-23 -43,17 -6,19 -20,40 -30,45 -10,6 -71,10 -135,10 -110,0 -117,-1 -140,-25 l -25,-24 v -761 c 0,-806 0,-806 45,-824 28,-11 223,-7 249,5 14,7 29,19 33,28 4,9 10,250 13,536 5,478 7,523 24,560 43,94 105,147 192,165 45,10 68,9 136,-6 l 81,-18 21,25 c 14,16 29,64 45,136 20,97 21,114 10,139 -29,59 -195,97 -309,71 z"
       id="path12"
       inkscape:connector-curvature="0"
       style="fill:#ffffff;fill-opacity:1" />
    <path
       d="m 4562,1863 c -7,-3 -19,-18 -27,-33 -13,-25 -15,-137 -15,-780 0,-773 0,-777 39,-807 21,-16 221,-17 255,-2 14,7 30,25 36,42 15,43 14,1493 -1,1536 -6,17 -19,36 -29,41 -19,10 -234,13 -258,3 z"
       id="path14"
       inkscape:connector-curvature="0"
       style="fill:#ffffff;fill-opacity:1" />
  </g>
</svg>
